<?xml version="1.0" encoding="UTF-8" standalone="no"?>
<!-- Created with Inkscape (http://www.inkscape.org/) -->

<svg
   width="226.09055mm"
   height="107.35131mm"
   viewBox="0 0 226.09055 107.35132"
   version="1.1"
   id="svg5239"
   sodipodi:docname="decomposition.svg"
   inkscape:version="1.2.2 (b0a8486541, 2022-12-01)"
   xmlns:inkscape="http://www.inkscape.org/namespaces/inkscape"
   xmlns:sodipodi="http://sodipodi.sourceforge.net/DTD/sodipodi-0.dtd"
   xmlns="http://www.w3.org/2000/svg"
   xmlns:svg="http://www.w3.org/2000/svg"
   xmlns:ns5="http://www.iki.fi/pav/software/textext/">
  <sodipodi:namedview
     id="namedview5241"
     pagecolor="#ffffff"
     bordercolor="#000000"
     borderopacity="0.25"
     inkscape:showpageshadow="2"
     inkscape:pageopacity="0.0"
     inkscape:pagecheckerboard="0"
     inkscape:deskcolor="#d1d1d1"
     inkscape:document-units="mm"
     showgrid="false"
     inkscape:zoom="0.83696327"
     inkscape:cx="567.52789"
     inkscape:cy="227.60855"
     inkscape:window-width="1920"
     inkscape:window-height="1019"
     inkscape:window-x="0"
     inkscape:window-y="0"
     inkscape:window-maximized="1"
     inkscape:current-layer="layer1" />
  <defs
     id="defs5236">
    <inkscape:path-effect
       effect="spiro"
       id="path-effect14615"
       is_visible="true"
       lpeversion="1" />
    <inkscape:path-effect
       effect="spiro"
       id="path-effect14611"
       is_visible="true"
       lpeversion="1" />
    <inkscape:path-effect
       effect="spiro"
       id="path-effect14607"
       is_visible="true"
       lpeversion="1" />
    <inkscape:path-effect
       effect="spiro"
       id="path-effect14603"
       is_visible="true"
       lpeversion="1" />
    <inkscape:path-effect
       effect="spiro"
       id="path-effect14599"
       is_visible="true"
       lpeversion="1" />
    <rect
       x="954.70654"
       y="37.257553"
       width="35.292576"
       height="48.612431"
       id="rect10137" />
    <inkscape:path-effect
       effect="spiro"
       id="path-effect9780"
       is_visible="true"
       lpeversion="1" />
    <inkscape:path-effect
       effect="spiro"
       id="path-effect9774"
       is_visible="true"
       lpeversion="1" />
    <inkscape:path-effect
       effect="spiro"
       id="path-effect9768"
       is_visible="true"
       lpeversion="1" />
    <inkscape:path-effect
       effect="spiro"
       id="path-effect9762"
       is_visible="true"
       lpeversion="1" />
    <inkscape:path-effect
       effect="spiro"
       id="path-effect9756"
       is_visible="true"
       lpeversion="1" />
    <inkscape:path-effect
       effect="spiro"
       id="path-effect9750"
       is_visible="true"
       lpeversion="1" />
    <inkscape:path-effect
       effect="spiro"
       id="path-effect9744"
       is_visible="true"
       lpeversion="1" />
    <inkscape:path-effect
       effect="spiro"
       id="path-effect9738"
       is_visible="true"
       lpeversion="1" />
    <inkscape:path-effect
       effect="spiro"
       id="path-effect9732"
       is_visible="true"
       lpeversion="1" />
    <inkscape:path-effect
       effect="spiro"
       id="path-effect9726"
       is_visible="true"
       lpeversion="1" />
    <inkscape:path-effect
       effect="spiro"
       id="path-effect9720"
       is_visible="true"
       lpeversion="1" />
    <inkscape:path-effect
       effect="spiro"
       id="path-effect9714"
       is_visible="true"
       lpeversion="1" />
    <inkscape:path-effect
       effect="spiro"
       id="path-effect9708"
       is_visible="true"
       lpeversion="1" />
    <inkscape:path-effect
       effect="spiro"
       id="path-effect9702"
       is_visible="true"
       lpeversion="1" />
    <inkscape:path-effect
       effect="spiro"
       id="path-effect9696"
       is_visible="true"
       lpeversion="1" />
    <inkscape:path-effect
       effect="spiro"
       id="path-effect9690"
       is_visible="true"
       lpeversion="1" />
    <inkscape:path-effect
       effect="spiro"
       id="path-effect9621"
       is_visible="true"
       lpeversion="1" />
  </defs>
  <g
     inkscape:label="Layer 1"
     inkscape:groupmode="layer"
     id="layer1"
     transform="translate(-26.978082,-40.859619)">
    <path
       style="fill:#505050;fill-opacity:1;stroke:#2e8759;stroke-width:1.6842;stroke-dasharray:3.36841, 1.6842;stroke-dashoffset:0;stroke-opacity:1"
       d="M 73.823451,49.991745 V 124.78268"
       id="path9704"
       inkscape:path-effect="#path-effect9708"
       inkscape:original-d="m 73.823451,49.991745 c 2.65e-4,24.9305 0,74.790935 0,74.790935" />
    <path
       style="fill:#505050;fill-opacity:1;stroke:#2e8759;stroke-width:1.6842;stroke-dasharray:3.36841, 1.6842;stroke-dashoffset:0;stroke-opacity:1"
       d="M 63.240117,49.991745 V 124.78268"
       id="path9698"
       inkscape:path-effect="#path-effect9702"
       inkscape:original-d="m 63.240117,49.991745 c 2.65e-4,24.9305 0,74.790935 0,74.790935" />
    <path
       style="fill:#505050;fill-opacity:1;stroke:#2e8759;stroke-width:1.6842;stroke-dasharray:3.36841, 1.6842;stroke-dashoffset:0;stroke-opacity:1"
       d="M 42.073449,49.991745 V 124.78268"
       id="path9686"
       inkscape:path-effect="#path-effect9690"
       inkscape:original-d="m 42.073449,49.991745 c 2.65e-4,24.9305 0,74.790935 0,74.790935" />
    <path
       style="fill:#505050;fill-opacity:1;stroke:#2e8759;stroke-width:1.6842;stroke-dasharray:3.36841, 1.6842;stroke-dashoffset:0;stroke-opacity:1"
       d="M 52.656783,49.991745 V 124.78268"
       id="path9692"
       inkscape:path-effect="#path-effect9696"
       inkscape:original-d="m 52.656783,49.991745 c 2.65e-4,24.9305 0,74.790935 0,74.790935" />
    <path
       style="fill:#505050;fill-opacity:1;stroke:#2e8759;stroke-width:1.6842;stroke-dasharray:3.36841, 1.6842;stroke-dashoffset:0;stroke-opacity:1"
       d="M 31.490115,49.991745 V 124.78268"
       id="path9619"
       inkscape:path-effect="#path-effect9621"
       inkscape:original-d="m 31.490115,49.991745 c 2.65e-4,24.9305 0,74.790935 0,74.790935" />
    <circle
       style="fill:#b0b0b0;fill-opacity:1;stroke:none;stroke-width:2;stroke-dasharray:none;stroke-opacity:1"
       id="path5295"
       cx="31.544146"
       cy="124.80066"
       r="4.5660634" />
    <circle
       style="fill:#b0b0b0;fill-opacity:1;stroke:none;stroke-width:2;stroke-dasharray:none;stroke-opacity:1"
       id="circle5297"
       cx="42.12748"
       cy="124.80066"
       r="4.5660634" />
    <circle
       style="fill:#b0b0b0;fill-opacity:1;stroke:none;stroke-width:2;stroke-dasharray:none;stroke-opacity:1"
       id="circle5299"
       cx="52.710815"
       cy="124.80066"
       r="4.5660634" />
    <circle
       style="fill:#b0b0b0;fill-opacity:1;stroke:none;stroke-width:2;stroke-dasharray:none;stroke-opacity:1"
       id="circle5301"
       cx="63.294147"
       cy="124.80066"
       r="4.5660634" />
    <circle
       style="fill:#b0b0b0;fill-opacity:1;stroke:none;stroke-width:2;stroke-dasharray:none;stroke-opacity:1"
       id="circle5303"
       cx="73.87748"
       cy="124.80066"
       r="4.5660634" />
    <circle
       style="fill:#909090;fill-opacity:1;stroke:none;stroke-width:2;stroke-dasharray:none;stroke-opacity:1"
       id="circle5327"
       cx="31.544146"
       cy="98.342339"
       r="4.5660634" />
    <circle
       style="fill:#909090;fill-opacity:1;stroke:none;stroke-width:2;stroke-dasharray:none;stroke-opacity:1"
       id="circle5329"
       cx="42.12748"
       cy="98.342339"
       r="4.5660634" />
    <circle
       style="fill:#909090;fill-opacity:1;stroke:none;stroke-width:2;stroke-dasharray:none;stroke-opacity:1"
       id="circle5331"
       cx="52.710815"
       cy="98.342339"
       r="4.5660634" />
    <circle
       style="fill:#909090;fill-opacity:1;stroke:none;stroke-width:2;stroke-dasharray:none;stroke-opacity:1"
       id="circle5333"
       cx="63.294147"
       cy="98.342339"
       r="4.5660634" />
    <circle
       style="fill:#909090;fill-opacity:1;stroke:none;stroke-width:2;stroke-dasharray:none;stroke-opacity:1"
       id="circle5335"
       cx="73.87748"
       cy="98.342339"
       r="4.5660634" />
    <circle
       style="fill:#707070;fill-opacity:1;stroke:none;stroke-width:2;stroke-dasharray:none;stroke-opacity:1"
       id="circle5359"
       cx="31.544146"
       cy="71.884018"
       r="4.5660634" />
    <circle
       style="fill:#707070;fill-opacity:1;stroke:none;stroke-width:2;stroke-dasharray:none;stroke-opacity:1"
       id="circle5361"
       cx="42.12748"
       cy="71.884018"
       r="4.5660634" />
    <circle
       style="fill:#707070;fill-opacity:1;stroke:none;stroke-width:2;stroke-dasharray:none;stroke-opacity:1"
       id="circle5363"
       cx="52.710815"
       cy="71.884018"
       r="4.5660634" />
    <circle
       style="fill:#707070;fill-opacity:1;stroke:none;stroke-width:2;stroke-dasharray:none;stroke-opacity:1"
       id="circle5365"
       cx="63.294147"
       cy="71.884018"
       r="4.5660634" />
    <circle
       style="fill:#707070;fill-opacity:1;stroke:none;stroke-width:2;stroke-dasharray:none;stroke-opacity:1"
       id="circle5367"
       cx="73.87748"
       cy="71.884018"
       r="4.5660634" />
    <circle
       style="fill:#505050;fill-opacity:1;stroke:none;stroke-width:2;stroke-dasharray:none;stroke-opacity:1"
       id="circle5391"
       cx="31.544146"
       cy="45.425682"
       r="4.5660634" />
    <circle
       style="fill:#505050;fill-opacity:1;stroke:none;stroke-width:2;stroke-dasharray:none;stroke-opacity:1"
       id="circle5393"
       cx="42.12748"
       cy="45.425682"
       r="4.5660634" />
    <circle
       style="fill:#505050;fill-opacity:1;stroke:none;stroke-width:2;stroke-dasharray:none;stroke-opacity:1"
       id="circle5395"
       cx="52.710815"
       cy="45.425682"
       r="4.5660634" />
    <circle
       style="fill:#505050;fill-opacity:1;stroke:none;stroke-width:2;stroke-dasharray:none;stroke-opacity:1"
       id="circle5397"
       cx="63.294147"
       cy="45.425682"
       r="4.5660634" />
    <circle
       style="fill:#505050;fill-opacity:1;stroke:none;stroke-width:2;stroke-dasharray:none;stroke-opacity:1"
       id="circle5399"
       cx="73.87748"
       cy="45.425682"
       r="4.5660634" />
    <text
       xml:space="preserve"
       transform="matrix(0.26458333,0,0,0.26458333,-57.7392,9.10962)"
       id="text10135"
       style="font-weight:500;font-size:26.6667px;font-family:'Fira Math';-inkscape-font-specification:'Fira Math Medium';text-align:justify;white-space:pre;shape-inside:url(#rect10137);display:inline;fill:#505050;fill-opacity:1;stroke:#2e8759;stroke-width:7.55906;stroke-dasharray:15.1181, 7.55906;stroke-dashoffset:0;stroke-opacity:1" />
    <path
       style="fill:#505050;fill-opacity:1;stroke:#2e8759;stroke-width:1.6842;stroke-dasharray:3.36841, 1.6842;stroke-dashoffset:0;stroke-opacity:1"
       d="M 248.44855,49.991745 V 124.78268"
       id="path14547"
       inkscape:path-effect="#path-effect14599"
       inkscape:original-d="m 248.44855,49.991745 c 2.6e-4,24.9305 0,74.790935 0,74.790935" />
    <path
       style="fill:#505050;fill-opacity:1;stroke:#2e8759;stroke-width:1.6842;stroke-dasharray:3.36841, 1.6842;stroke-dashoffset:0;stroke-opacity:1"
       d="M 216.69853,49.991745 V 124.78268"
       id="path14549"
       inkscape:path-effect="#path-effect14603"
       inkscape:original-d="m 216.69853,49.991745 c 2.6e-4,24.9305 0,74.790935 0,74.790935" />
    <path
       style="fill:#505050;fill-opacity:1;stroke:#2e8759;stroke-width:1.6842;stroke-dasharray:3.36841, 1.6842;stroke-dashoffset:0;stroke-opacity:1"
       d="M 153.19849,49.991745 V 124.78268"
       id="path14551"
       inkscape:path-effect="#path-effect14607"
       inkscape:original-d="m 153.19849,49.991745 c 2.6e-4,24.9305 0,74.790935 0,74.790935" />
    <path
       style="fill:#505050;fill-opacity:1;stroke:#2e8759;stroke-width:1.6842;stroke-dasharray:3.36841, 1.6842;stroke-dashoffset:0;stroke-opacity:1"
       d="M 184.94851,49.991745 V 124.78268"
       id="path14553"
       inkscape:path-effect="#path-effect14611"
       inkscape:original-d="m 184.94851,49.991745 c 2.6e-4,24.9305 0,74.790935 0,74.790935" />
    <path
       style="fill:#505050;fill-opacity:1;stroke:#2e8759;stroke-width:1.6842;stroke-dasharray:3.36841, 1.6842;stroke-dashoffset:0;stroke-opacity:1"
       d="M 121.44847,49.991745 V 124.78268"
       id="path14555"
       inkscape:path-effect="#path-effect14615"
       inkscape:original-d="m 121.44847,49.991745 c 2.6e-4,24.9305 0,74.790935 0,74.790935" />
    <circle
       style="fill:#b0b0b0;fill-opacity:1;stroke:none;stroke-width:2;stroke-dasharray:none;stroke-opacity:1"
       id="circle14557"
       cx="121.50244"
       cy="124.80066"
       r="4.5660634" />
    <circle
       style="fill:#b0b0b0;fill-opacity:1;stroke:none;stroke-width:2;stroke-dasharray:none;stroke-opacity:1"
       id="circle14559"
       cx="153.25247"
       cy="124.80066"
       r="4.5660634" />
    <circle
       style="fill:#b0b0b0;fill-opacity:1;stroke:none;stroke-width:2;stroke-dasharray:none;stroke-opacity:1"
       id="circle14561"
       cx="185.0025"
       cy="124.80066"
       r="4.5660634" />
    <circle
       style="fill:#b0b0b0;fill-opacity:1;stroke:none;stroke-width:2;stroke-dasharray:none;stroke-opacity:1"
       id="circle14563"
       cx="216.75253"
       cy="124.80066"
       r="4.5660634" />
    <circle
       style="fill:#b0b0b0;fill-opacity:1;stroke:none;stroke-width:2;stroke-dasharray:none;stroke-opacity:1"
       id="circle14565"
       cx="248.50256"
       cy="124.80066"
       r="4.5660634" />
    <circle
       style="fill:#909090;fill-opacity:1;stroke:none;stroke-width:2;stroke-dasharray:none;stroke-opacity:1"
       id="circle14567"
       cx="121.50244"
       cy="98.342339"
       r="4.5660634" />
    <circle
       style="fill:#909090;fill-opacity:1;stroke:none;stroke-width:2;stroke-dasharray:none;stroke-opacity:1"
       id="circle14569"
       cx="153.25247"
       cy="98.342339"
       r="4.5660634" />
    <circle
       style="fill:#909090;fill-opacity:1;stroke:none;stroke-width:2;stroke-dasharray:none;stroke-opacity:1"
       id="circle14571"
       cx="185.0025"
       cy="98.342339"
       r="4.5660634" />
    <circle
       style="fill:#909090;fill-opacity:1;stroke:none;stroke-width:2;stroke-dasharray:none;stroke-opacity:1"
       id="circle14573"
       cx="216.75253"
       cy="98.342339"
       r="4.5660634" />
    <circle
       style="fill:#909090;fill-opacity:1;stroke:none;stroke-width:2;stroke-dasharray:none;stroke-opacity:1"
       id="circle14575"
       cx="248.50256"
       cy="98.342339"
       r="4.5660634" />
    <circle
       style="fill:#707070;fill-opacity:1;stroke:none;stroke-width:2;stroke-dasharray:none;stroke-opacity:1"
       id="circle14577"
       cx="121.50244"
       cy="71.884018"
       r="4.5660634" />
    <circle
       style="fill:#707070;fill-opacity:1;stroke:none;stroke-width:2;stroke-dasharray:none;stroke-opacity:1"
       id="circle14579"
       cx="153.25247"
       cy="71.884018"
       r="4.5660634" />
    <circle
       style="fill:#707070;fill-opacity:1;stroke:none;stroke-width:2;stroke-dasharray:none;stroke-opacity:1"
       id="circle14581"
       cx="185.0025"
       cy="71.884018"
       r="4.5660634" />
    <circle
       style="fill:#707070;fill-opacity:1;stroke:none;stroke-width:2;stroke-dasharray:none;stroke-opacity:1"
       id="circle14583"
       cx="216.75253"
       cy="71.884018"
       r="4.5660634" />
    <circle
       style="fill:#707070;fill-opacity:1;stroke:none;stroke-width:2;stroke-dasharray:none;stroke-opacity:1"
       id="circle14585"
       cx="248.50256"
       cy="71.884018"
       r="4.5660634" />
    <circle
       style="fill:#505050;fill-opacity:1;stroke:none;stroke-width:2;stroke-dasharray:none;stroke-opacity:1"
       id="circle14587"
       cx="121.50244"
       cy="45.425682"
       r="4.5660634" />
    <circle
       style="fill:#505050;fill-opacity:1;stroke:none;stroke-width:2;stroke-dasharray:none;stroke-opacity:1"
       id="circle14589"
       cx="153.25247"
       cy="45.425682"
       r="4.5660634" />
    <circle
       style="fill:#505050;fill-opacity:1;stroke:none;stroke-width:2;stroke-dasharray:none;stroke-opacity:1"
       id="circle14591"
       cx="185.0025"
       cy="45.425682"
       r="4.5660634" />
    <circle
       style="fill:#505050;fill-opacity:1;stroke:none;stroke-width:2;stroke-dasharray:none;stroke-opacity:1"
       id="circle14593"
       cx="216.75253"
       cy="45.425682"
       r="4.5660634" />
    <circle
       style="fill:#505050;fill-opacity:1;stroke:none;stroke-width:2;stroke-dasharray:none;stroke-opacity:1"
       id="circle14595"
       cx="248.50256"
       cy="45.425682"
       r="4.5660634" />
    <g
       transform="matrix(4.5861,0,0,4.5861,88.6738,78.3481)"
       ns5:version="1.8.2"
       ns5:texconverter="xelatex"
       ns5:pdfconverter="inkscape"
       ns5:text="$=$"
       ns5:preamble="/home/kirito/.config/textext/beamer_preamble.tex"
       ns5:scale="13.0"
       ns5:alignment="middle center"
       ns5:stroke-to-path="0"
       ns5:inkscapeversion="1.2.2"
       ns5:jacobian_sqrt="4.5861"
       id="g14468">
      <defs
         id="id-7e35e188-e16e-49f9-a09f-7e7fd48d26e1">
        <g
           id="id-04ef23ab-d06e-42dd-84df-36eb67645e69">
          <g
             id="id-76bfb553-37c5-4eb6-8fb1-6ba6757ab8c1">
            <path
               d="m 5.4375,-6.4375 v 5.890625 H 1.34375 V -6.4375 Z m 0.546875,-0.546875 h -5.1875 V 0 h 5.1875 z m -2.75,4.953125 c -0.21875,0 -0.40625,0.1875 -0.40625,0.421875 0,0.21875 0.1875,0.40625 0.40625,0.40625 0.25,0 0.421875,-0.1875 0.421875,-0.40625 0,-0.234375 -0.171875,-0.421875 -0.421875,-0.421875 z M 3.4375,-5.453125 c -0.5,0 -0.90625,0.1875 -1.25,0.59375 l 0.390625,0.28125 C 2.828125,-4.875 3.09375,-5 3.40625,-5 3.765625,-5 4,-4.8125 4,-4.484375 4,-3.84375 2.953125,-3.953125 2.953125,-2.9375 v 0.296875 H 3.5 V -2.90625 c 0,-0.796875 1.078125,-0.65625 1.078125,-1.625 0,-0.46875 -0.375,-0.921875 -1.140625,-0.921875 z m 0,0"
               id="id-78f16f3d-b5b6-4656-8496-24a92e74d368" />
          </g>
          <g
             id="id-b2d6da7a-900b-4734-ba61-8c0712581b6a">
            <path
               d="M 0.625,-1.453125 H 4.359375 V -2.21875 H 0.625 Z m 0,-1.921875 h 3.734375 v -0.75 H 0.625 Z m 0,0"
               id="id-81f76532-aa57-4f93-aecd-1ececce37b54" />
          </g>
        </g>
      </defs>
      <g
         fill="#000000"
         fill-opacity="1"
         id="id-a5a1e0a7-5f7a-4f3e-a79c-8db94fc37a16"
         transform="translate(-149.337,-130.64)">
        <g
           transform="translate(148.712,134.765)"
           id="g15035">
          <path
             d="M 0.625,-1.453125 H 4.359375 V -2.21875 H 0.625 Z m 0,-1.921875 h 3.734375 v -0.75 H 0.625 Z m 0,0"
             id="id-9aae32a3-d1f4-4e73-b958-a58516fd54ed" />
        </g>
      </g>
    </g>
    <g
       transform="matrix(3.52777,0,0,3.52777,130.867,77.8614)"
       ns5:version="1.8.2"
       ns5:texconverter="xelatex"
       ns5:pdfconverter="inkscape"
       ns5:text="$+$"
       ns5:preamble="/home/kirito/.config/textext/beamer_preamble.tex"
       ns5:scale="10.0"
       ns5:alignment="middle center"
       ns5:stroke-to-path="0"
       ns5:inkscapeversion="1.2.2"
       ns5:jacobian_sqrt="3.52777"
       id="g14635">
      <defs
         id="id-72530f8c-6bcd-48e9-8e33-ffc86165d3e7">
        <g
           id="id-5712d1b4-1c48-4a11-956b-9d025c6cd0ec">
          <g
             id="id-09efeb36-68b4-4d10-9095-d0b658cb8bee">
            <path
               d="m 5.4375,-6.4375 v 5.890625 H 1.34375 V -6.4375 Z m 0.546875,-0.546875 h -5.1875 V 0 h 5.1875 z m -2.75,4.953125 c -0.21875,0 -0.40625,0.1875 -0.40625,0.421875 0,0.21875 0.1875,0.40625 0.40625,0.40625 0.25,0 0.421875,-0.1875 0.421875,-0.40625 0,-0.234375 -0.171875,-0.421875 -0.421875,-0.421875 z M 3.4375,-5.453125 c -0.5,0 -0.90625,0.1875 -1.25,0.59375 l 0.390625,0.28125 C 2.828125,-4.875 3.09375,-5 3.40625,-5 3.765625,-5 4,-4.8125 4,-4.484375 4,-3.84375 2.953125,-3.953125 2.953125,-2.9375 v 0.296875 H 3.5 V -2.90625 c 0,-0.796875 1.078125,-0.65625 1.078125,-1.625 0,-0.46875 -0.375,-0.921875 -1.140625,-0.921875 z m 0,0"
               id="id-8569d383-fe92-43fb-b890-985f79298628" />
          </g>
          <g
             id="id-2ddd2037-5a21-47c9-a006-f1192024dfae">
            <path
               d="M 2.90625,-4.671875 H 2.078125 v 1.5 H 0.625 v 0.765625 h 1.453125 v 1.484375 H 2.90625 V -2.40625 H 4.359375 V -3.171875 H 2.90625 Z m 0,0"
               id="id-05de8fd0-cb12-4468-9759-693687a7a1e4" />
          </g>
        </g>
      </defs>
      <g
         fill="#000000"
         fill-opacity="1"
         id="id-758dd812-87c9-4b66-8626-3ef2840d6f26"
         transform="translate(-149.337,-130.093)">
        <g
           transform="translate(148.712,134.765)"
           id="g15449">
          <path
             d="M 2.90625,-4.671875 H 2.078125 v 1.5 H 0.625 v 0.765625 h 1.453125 v 1.484375 H 2.90625 V -2.40625 H 4.359375 V -3.171875 H 2.90625 Z m 0,0"
             id="id-78438aa8-948c-40ef-ab06-5435d66bff1a" />
        </g>
      </g>
    </g>
    <g
       transform="matrix(3.52777,0,0,3.52777,162.61702,77.8614)"
       ns5:version="1.8.2"
       ns5:texconverter="xelatex"
       ns5:pdfconverter="inkscape"
       ns5:text="$+$"
       ns5:preamble="/home/kirito/.config/textext/beamer_preamble.tex"
       ns5:scale="10.0"
       ns5:alignment="middle center"
       ns5:stroke-to-path="0"
       ns5:inkscapeversion="1.2.2"
       ns5:jacobian_sqrt="3.52777"
       id="g15483">
      <defs
         id="defs15475">
        <g
           id="g15473">
          <g
             id="g15467">
            <path
               d="m 5.4375,-6.4375 v 5.890625 H 1.34375 V -6.4375 Z m 0.546875,-0.546875 h -5.1875 V 0 h 5.1875 z m -2.75,4.953125 c -0.21875,0 -0.40625,0.1875 -0.40625,0.421875 0,0.21875 0.1875,0.40625 0.40625,0.40625 0.25,0 0.421875,-0.1875 0.421875,-0.40625 0,-0.234375 -0.171875,-0.421875 -0.421875,-0.421875 z M 3.4375,-5.453125 c -0.5,0 -0.90625,0.1875 -1.25,0.59375 l 0.390625,0.28125 C 2.828125,-4.875 3.09375,-5 3.40625,-5 3.765625,-5 4,-4.8125 4,-4.484375 4,-3.84375 2.953125,-3.953125 2.953125,-2.9375 v 0.296875 H 3.5 V -2.90625 c 0,-0.796875 1.078125,-0.65625 1.078125,-1.625 0,-0.46875 -0.375,-0.921875 -1.140625,-0.921875 z m 0,0"
               id="path15465" />
          </g>
          <g
             id="g15471">
            <path
               d="M 2.90625,-4.671875 H 2.078125 v 1.5 H 0.625 v 0.765625 h 1.453125 v 1.484375 H 2.90625 V -2.40625 H 4.359375 V -3.171875 H 2.90625 Z m 0,0"
               id="path15469" />
          </g>
        </g>
      </defs>
      <g
         fill="#000000"
         fill-opacity="1"
         id="g15481"
         transform="translate(-149.337,-130.093)">
        <g
           transform="translate(148.712,134.765)"
           id="g15479">
          <path
             d="M 2.90625,-4.671875 H 2.078125 v 1.5 H 0.625 v 0.765625 h 1.453125 v 1.484375 H 2.90625 V -2.40625 H 4.359375 V -3.171875 H 2.90625 Z m 0,0"
             id="path15477" />
        </g>
      </g>
    </g>
    <g
       transform="matrix(3.52777,0,0,3.52777,194.36704,77.8614)"
       ns5:version="1.8.2"
       ns5:texconverter="xelatex"
       ns5:pdfconverter="inkscape"
       ns5:text="$+$"
       ns5:preamble="/home/kirito/.config/textext/beamer_preamble.tex"
       ns5:scale="10.0"
       ns5:alignment="middle center"
       ns5:stroke-to-path="0"
       ns5:inkscapeversion="1.2.2"
       ns5:jacobian_sqrt="3.52777"
       id="g15503">
      <defs
         id="defs15495">
        <g
           id="g15493">
          <g
             id="g15487">
            <path
               d="m 5.4375,-6.4375 v 5.890625 H 1.34375 V -6.4375 Z m 0.546875,-0.546875 h -5.1875 V 0 h 5.1875 z m -2.75,4.953125 c -0.21875,0 -0.40625,0.1875 -0.40625,0.421875 0,0.21875 0.1875,0.40625 0.40625,0.40625 0.25,0 0.421875,-0.1875 0.421875,-0.40625 0,-0.234375 -0.171875,-0.421875 -0.421875,-0.421875 z M 3.4375,-5.453125 c -0.5,0 -0.90625,0.1875 -1.25,0.59375 l 0.390625,0.28125 C 2.828125,-4.875 3.09375,-5 3.40625,-5 3.765625,-5 4,-4.8125 4,-4.484375 4,-3.84375 2.953125,-3.953125 2.953125,-2.9375 v 0.296875 H 3.5 V -2.90625 c 0,-0.796875 1.078125,-0.65625 1.078125,-1.625 0,-0.46875 -0.375,-0.921875 -1.140625,-0.921875 z m 0,0"
               id="path15485" />
          </g>
          <g
             id="g15491">
            <path
               d="M 2.90625,-4.671875 H 2.078125 v 1.5 H 0.625 v 0.765625 h 1.453125 v 1.484375 H 2.90625 V -2.40625 H 4.359375 V -3.171875 H 2.90625 Z m 0,0"
               id="path15489" />
          </g>
        </g>
      </defs>
      <g
         fill="#000000"
         fill-opacity="1"
         id="g15501"
         transform="translate(-149.337,-130.093)">
        <g
           transform="translate(148.712,134.765)"
           id="g15499">
          <path
             d="M 2.90625,-4.671875 H 2.078125 v 1.5 H 0.625 v 0.765625 h 1.453125 v 1.484375 H 2.90625 V -2.40625 H 4.359375 V -3.171875 H 2.90625 Z m 0,0"
             id="path15497" />
        </g>
      </g>
    </g>
    <g
       transform="matrix(3.52777,0,0,3.52777,226.11706,77.8614)"
       ns5:version="1.8.2"
       ns5:texconverter="xelatex"
       ns5:pdfconverter="inkscape"
       ns5:text="$+$"
       ns5:preamble="/home/kirito/.config/textext/beamer_preamble.tex"
       ns5:scale="10.0"
       ns5:alignment="middle center"
       ns5:stroke-to-path="0"
       ns5:inkscapeversion="1.2.2"
       ns5:jacobian_sqrt="3.52777"
       id="g15523">
      <defs
         id="defs15515">
        <g
           id="g15513">
          <g
             id="g15507">
            <path
               d="m 5.4375,-6.4375 v 5.890625 H 1.34375 V -6.4375 Z m 0.546875,-0.546875 h -5.1875 V 0 h 5.1875 z m -2.75,4.953125 c -0.21875,0 -0.40625,0.1875 -0.40625,0.421875 0,0.21875 0.1875,0.40625 0.40625,0.40625 0.25,0 0.421875,-0.1875 0.421875,-0.40625 0,-0.234375 -0.171875,-0.421875 -0.421875,-0.421875 z M 3.4375,-5.453125 c -0.5,0 -0.90625,0.1875 -1.25,0.59375 l 0.390625,0.28125 C 2.828125,-4.875 3.09375,-5 3.40625,-5 3.765625,-5 4,-4.8125 4,-4.484375 4,-3.84375 2.953125,-3.953125 2.953125,-2.9375 v 0.296875 H 3.5 V -2.90625 c 0,-0.796875 1.078125,-0.65625 1.078125,-1.625 0,-0.46875 -0.375,-0.921875 -1.140625,-0.921875 z m 0,0"
               id="path15505" />
          </g>
          <g
             id="g15511">
            <path
               d="M 2.90625,-4.671875 H 2.078125 v 1.5 H 0.625 v 0.765625 h 1.453125 v 1.484375 H 2.90625 V -2.40625 H 4.359375 V -3.171875 H 2.90625 Z m 0,0"
               id="path15509" />
          </g>
        </g>
      </defs>
      <g
         fill="#000000"
         fill-opacity="1"
         id="g15521"
         transform="translate(-149.337,-130.093)">
        <g
           transform="translate(148.712,134.765)"
           id="g15519">
          <path
             d="M 2.90625,-4.671875 H 2.078125 v 1.5 H 0.625 v 0.765625 h 1.453125 v 1.484375 H 2.90625 V -2.40625 H 4.359375 V -3.171875 H 2.90625 Z m 0,0"
             id="path15517" />
        </g>
      </g>
    </g>
    <g
       transform="matrix(0.881941 0 0 0.881941 164 139.487)"
       ns5:version="1.8.2"
       ns5:texconverter="xelatex"
       ns5:pdfconverter="inkscape"
       ns5:text="set of POC"
       ns5:preamble="/home/kirito/.config/textext/beamer_preamble.tex"
       ns5:scale="2.5"
       ns5:alignment="middle center"
       ns5:stroke-to-path="0"
       ns5:inkscapeversion="1.2.2"
       ns5:jacobian_sqrt="0.881941"
       id="g15834">
      <defs
         id="id-f5007e67-b690-442c-b41e-808484a00a6a">
        <g
           id="id-26eafb17-e8eb-4289-9188-df3204582a8b">
          <g
             id="id-034650a9-fd30-4db1-8411-bab4267e8dfd">
            <path
               d="M 5.40625,-10.46875 V 3.484375 H 1.21875 V -10.46875 Z M 4.875,-9.953125 H 1.78125 V 2.96875 H 4.875 Z M 3.234375,-4.5 c 0.394531,0 0.675781,0.109375 0.84375,0.328125 0.175781,0.210937 0.265625,0.484375 0.265625,0.828125 0,0.34375 -0.078125,0.617188 -0.234375,0.8125 -0.148437,0.1875 -0.386719,0.308594 -0.71875,0.359375 v 0.453125 c 0,0.074219 -0.027344,0.132812 -0.078125,0.171875 -0.054688,0.042969 -0.109375,0.0625 -0.171875,0.0625 -0.0625,0 -0.121094,-0.019531 -0.171875,-0.0625 C 2.914062,-1.585938 2.890625,-1.644531 2.890625,-1.71875 V -2.5625 c 0.351563,-0.019531 0.59375,-0.082031 0.71875,-0.1875 0.125,-0.113281 0.1875,-0.304688 0.1875,-0.578125 0,-0.21875 -0.046875,-0.382813 -0.140625,-0.5 -0.085938,-0.125 -0.242188,-0.1875 -0.46875,-0.1875 -0.1875,0 -0.359375,0.039063 -0.515625,0.109375 -0.054687,0.023438 -0.09375,0.03125 -0.125,0.03125 -0.074219,0 -0.136719,-0.019531 -0.1875,-0.0625 -0.042969,-0.039062 -0.0625,-0.097656 -0.0625,-0.171875 0,-0.125 0.097656,-0.21875 0.296875,-0.28125 C 2.789062,-4.460938 3.003906,-4.5 3.234375,-4.5 Z m -0.09375,3.296875 c 0.101563,0 0.1875,0.039063 0.25,0.109375 0.0625,0.0625 0.09375,0.148438 0.09375,0.25 0,0.105469 -0.03125,0.195312 -0.09375,0.265625 -0.0625,0.0625 -0.148437,0.09375 -0.25,0.09375 -0.105469,0 -0.1875,-0.03125 -0.25,-0.09375 -0.0625,-0.070313 -0.09375,-0.160156 -0.09375,-0.265625 0,-0.101562 0.03125,-0.1875 0.09375,-0.25 0.0625,-0.070312 0.144531,-0.109375 0.25,-0.109375 z m 0,0"
               id="id-49cb0944-88c6-4ab0-a29a-5d58b16ca436" />
          </g>
          <g
             id="id-6676e519-aa29-4387-a6bd-8656b8fc31fb">
            <path
               d="m 2.375,-5.375 c 0.351562,0 0.671875,0.054688 0.953125,0.15625 0.289063,0.09375 0.566406,0.242188 0.828125,0.4375 L 3.765625,-4.203125 C 3.523438,-4.347656 3.296875,-4.457031 3.078125,-4.53125 2.867188,-4.601562 2.644531,-4.640625 2.40625,-4.640625 c -0.304688,0 -0.542969,0.0625 -0.71875,0.1875 -0.167969,0.117187 -0.25,0.28125 -0.25,0.5 0,0.210937 0.078125,0.375 0.234375,0.5 0.164063,0.117187 0.460937,0.230469 0.890625,0.34375 0.582031,0.148437 1.019531,0.34375 1.3125,0.59375 0.289062,0.25 0.4375,0.601563 0.4375,1.046875 0,0.511719 -0.203125,0.90625 -0.609375,1.1875 C 3.296875,-0.0078125 2.804688,0.125 2.234375,0.125 1.429688,0.125 0.769531,-0.101562 0.25,-0.5625 L 0.734375,-1.125 c 0.445313,0.335938 0.941406,0.5 1.484375,0.5 0.34375,0 0.613281,-0.066406 0.8125,-0.203125 0.207031,-0.144531 0.3125,-0.34375 0.3125,-0.59375 0,-0.175781 -0.039062,-0.316406 -0.109375,-0.421875 C 3.160156,-1.957031 3.03125,-2.054688 2.84375,-2.140625 2.664062,-2.222656 2.40625,-2.3125 2.0625,-2.40625 1.5,-2.550781 1.09375,-2.742188 0.84375,-2.984375 c -0.242188,-0.25 -0.359375,-0.5625 -0.359375,-0.9375 0,-0.28125 0.078125,-0.53125 0.234375,-0.75 C 0.882812,-4.890625 1.109375,-5.0625 1.390625,-5.1875 1.679688,-5.3125 2.007812,-5.375 2.375,-5.375 Z m 0,0"
               id="id-90d33971-60fe-4af6-89df-f889c7751b3c" />
          </g>
          <g
             id="id-889f693d-3943-4989-bb40-9a534d4a6f66">
            <path
               d="m 4.921875,-2.78125 c 0,0.15625 -0.011719,0.3125 -0.03125,0.46875 h -3.34375 c 0.039063,0.574219 0.1875,1 0.4375,1.28125 0.25,0.273438 0.570313,0.40625 0.96875,0.40625 0.257813,0 0.492187,-0.035156 0.703125,-0.109375 C 3.875,-0.804688 4.097656,-0.925781 4.328125,-1.09375 l 0.390625,0.5625 C 4.164062,-0.09375 3.554688,0.125 2.890625,0.125 2.160156,0.125 1.585938,-0.113281 1.171875,-0.59375 0.765625,-1.070312 0.5625,-1.734375 0.5625,-2.578125 c 0,-0.539063 0.085938,-1.019531 0.265625,-1.4375 0.175781,-0.425781 0.425781,-0.757813 0.75,-1 C 1.910156,-5.253906 2.300781,-5.375 2.75,-5.375 c 0.695312,0 1.234375,0.230469 1.609375,0.6875 0.375,0.460938 0.5625,1.09375 0.5625,1.90625 z M 4,-3.046875 c 0,-0.519531 -0.105469,-0.914063 -0.3125,-1.1875 -0.199219,-0.269531 -0.507812,-0.40625 -0.921875,-0.40625 -0.75,0 -1.15625,0.554687 -1.21875,1.65625 H 4 Z m 0,0"
               id="id-ff701533-637c-453f-a105-d371beea55ff" />
          </g>
          <g
             id="id-de44dec4-f8b7-43f6-b046-75018f21f4e1">
            <path
               d="M 3.59375,-0.234375 C 3.25,0.00390625 2.859375,0.125 2.421875,0.125 1.972656,0.125 1.625,0 1.375,-0.25 1.125,-0.507812 1,-0.882812 1,-1.375 V -4.546875 H 0.09375 V -5.25 H 1 V -6.4375 L 1.921875,-6.546875 V -5.25 h 1.25 l -0.09375,0.703125 h -1.15625 v 3.125 c 0,0.28125 0.046875,0.484375 0.140625,0.609375 0.101562,0.117188 0.265625,0.171875 0.484375,0.171875 0.207031,0 0.441406,-0.066406 0.703125,-0.203125 z m 0,0"
               id="id-9e2e866b-73d3-426f-903d-0daf89662f45" />
          </g>
          <g
             id="id-419cecdc-6c60-4a21-b82f-4731a7af6f4a">
            <path
               d="m 2.921875,-5.375 c 0.738281,0 1.3125,0.25 1.71875,0.75 0.40625,0.492188 0.609375,1.15625 0.609375,2 0,0.542969 -0.09375,1.023438 -0.28125,1.4375 -0.1875,0.417969 -0.460938,0.742188 -0.8125,0.96875 C 3.8125,0.0078125 3.394531,0.125 2.90625,0.125 2.164062,0.125 1.585938,-0.117188 1.171875,-0.609375 0.765625,-1.109375 0.5625,-1.78125 0.5625,-2.625 c 0,-0.539062 0.09375,-1.019531 0.28125,-1.4375 0.1875,-0.414062 0.457031,-0.738281 0.8125,-0.96875 C 2.007812,-5.257812 2.429688,-5.375 2.921875,-5.375 Z m 0,0.734375 c -0.90625,0 -1.359375,0.671875 -1.359375,2.015625 0,1.335938 0.445312,2 1.34375,2 0.90625,0 1.359375,-0.664062 1.359375,-2 0,-1.34375 -0.449219,-2.015625 -1.34375,-2.015625 z m 0,0"
               id="id-f5b3dcf7-8e96-4234-aaf6-05be425ac4f7" />
          </g>
          <g
             id="id-1be436f3-c870-4471-8bdc-18879b4097a1">
            <path
               d="m 2.734375,-6.734375 c -0.28125,0 -0.484375,0.0625 -0.609375,0.1875 -0.117188,0.117187 -0.171875,0.304687 -0.171875,0.5625 V -5.25 h 1.28125 L 3.125,-4.546875 H 1.953125 V 0 H 1.03125 V -4.546875 H 0.09375 V -5.25 h 0.9375 v -0.71875 c 0,-0.457031 0.144531,-0.820312 0.4375,-1.09375 0.289062,-0.28125 0.695312,-0.421875 1.21875,-0.421875 0.238281,0 0.453125,0.027344 0.640625,0.078125 0.1875,0.042969 0.390625,0.109375 0.609375,0.203125 l -0.28125,0.65625 c -0.304688,-0.125 -0.609375,-0.1875 -0.921875,-0.1875 z m 0,0"
               id="id-9e6753a1-ada8-4a32-96ad-89895e51bbb4" />
          </g>
          <g
             id="id-2ffe158d-bc96-467b-a2b2-7e47a35e2f50">
            <path
               d="m 2.796875,-6.875 c 0.851563,0 1.507813,0.183594 1.96875,0.546875 0.46875,0.355469 0.703125,0.882813 0.703125,1.578125 0,0.75 -0.246094,1.3125 -0.734375,1.6875 C 4.253906,-2.695312 3.613281,-2.515625 2.8125,-2.515625 H 1.9375 V 0 H 1 v -6.875 z m -0.03125,3.609375 c 0.550781,0 0.972656,-0.101563 1.265625,-0.3125 0.289062,-0.21875 0.4375,-0.601563 0.4375,-1.15625 0,-0.488281 -0.148438,-0.84375 -0.4375,-1.0625 C 3.738281,-6.015625 3.328125,-6.125 2.796875,-6.125 H 1.9375 v 2.859375 z m 0,0"
               id="id-617e874d-870a-421e-a52f-886ff505daeb" />
          </g>
          <g
             id="id-715d41b9-8d7e-4fe7-a3ad-69ff1b27e219">
            <path
               d="m 3.453125,-6.984375 c 0.570313,0 1.078125,0.140625 1.515625,0.421875 0.4375,0.273438 0.773438,0.671875 1.015625,1.203125 0.238281,0.53125 0.359375,1.179687 0.359375,1.9375 0,0.742187 -0.121094,1.375 -0.359375,1.90625 -0.242187,0.53125 -0.578125,0.9375 -1.015625,1.21875 C 4.53125,-0.015625 4.023438,0.125 3.453125,0.125 2.867188,0.125 2.359375,-0.0078125 1.921875,-0.28125 1.492188,-0.5625 1.15625,-0.96875 0.90625,-1.5 0.664062,-2.03125 0.546875,-2.671875 0.546875,-3.421875 c 0,-0.738281 0.117187,-1.375 0.359375,-1.90625 C 1.15625,-5.867188 1.5,-6.28125 1.9375,-6.5625 2.375,-6.84375 2.878906,-6.984375 3.453125,-6.984375 Z m 0,0.78125 c -0.605469,0 -1.074219,0.226563 -1.40625,0.671875 -0.324219,0.449219 -0.484375,1.152344 -0.484375,2.109375 0,0.949219 0.164062,1.648437 0.5,2.09375 0.332031,0.449219 0.796875,0.671875 1.390625,0.671875 1.257813,0 1.890625,-0.921875 1.890625,-2.765625 0,-1.851563 -0.632812,-2.78125 -1.890625,-2.78125 z m 0,0"
               id="id-e9f6a73b-4ac2-4cb5-86a9-9fec117c372e" />
          </g>
          <g
             id="id-9d280d48-c598-4495-b4da-c56e6a2a8cd4">
            <path
               d="m 3.40625,-6.984375 c 0.40625,0 0.75,0.054687 1.03125,0.15625 0.28125,0.105469 0.566406,0.277344 0.859375,0.515625 L 4.78125,-5.703125 c -0.417969,-0.332031 -0.859375,-0.5 -1.328125,-0.5 -0.5625,0 -1.023437,0.21875 -1.375,0.65625 -0.34375,0.4375 -0.515625,1.140625 -0.515625,2.109375 0,0.9375 0.171875,1.636719 0.515625,2.09375 0.34375,0.449219 0.800781,0.671875 1.375,0.671875 0.289063,0 0.546875,-0.050781 0.765625,-0.15625 C 4.4375,-0.929688 4.671875,-1.070312 4.921875,-1.25 l 0.46875,0.609375 C 5.171875,-0.421875 4.894531,-0.238281 4.5625,-0.09375 4.226562,0.0507812 3.847656,0.125 3.421875,0.125 c -0.5625,0 -1.0625,-0.1328125 -1.5,-0.40625 C 1.492188,-0.5625 1.15625,-0.96875 0.90625,-1.5 0.664062,-2.039062 0.546875,-2.6875 0.546875,-3.4375 c 0,-0.75 0.125,-1.390625 0.375,-1.921875 0.257813,-0.539063 0.601563,-0.945313 1.03125,-1.21875 0.4375,-0.269531 0.921875,-0.40625 1.453125,-0.40625 z m 0,0"
               id="id-b47b0692-289e-4198-9f44-f518cc0222e2" />
          </g>
        </g>
      </defs>
      <g
         fill="#000000"
         fill-opacity="1"
         id="id-09e47214-0113-4295-b1b6-f72b311422ee"
         transform="translate(-148.962, -127.281)">
        <g
           transform="translate(148.712, 134.765)"
           id="g61389">
          <path
             d="m 2.375,-5.375 c 0.351562,0 0.671875,0.054688 0.953125,0.15625 0.289063,0.09375 0.566406,0.242188 0.828125,0.4375 L 3.765625,-4.203125 C 3.523438,-4.347656 3.296875,-4.457031 3.078125,-4.53125 2.867188,-4.601562 2.644531,-4.640625 2.40625,-4.640625 c -0.304688,0 -0.542969,0.0625 -0.71875,0.1875 -0.167969,0.117187 -0.25,0.28125 -0.25,0.5 0,0.210937 0.078125,0.375 0.234375,0.5 0.164063,0.117187 0.460937,0.230469 0.890625,0.34375 0.582031,0.148437 1.019531,0.34375 1.3125,0.59375 0.289062,0.25 0.4375,0.601563 0.4375,1.046875 0,0.511719 -0.203125,0.90625 -0.609375,1.1875 C 3.296875,-0.0078125 2.804688,0.125 2.234375,0.125 1.429688,0.125 0.769531,-0.101562 0.25,-0.5625 L 0.734375,-1.125 c 0.445313,0.335938 0.941406,0.5 1.484375,0.5 0.34375,0 0.613281,-0.066406 0.8125,-0.203125 0.207031,-0.144531 0.3125,-0.34375 0.3125,-0.59375 0,-0.175781 -0.039062,-0.316406 -0.109375,-0.421875 C 3.160156,-1.957031 3.03125,-2.054688 2.84375,-2.140625 2.664062,-2.222656 2.40625,-2.3125 2.0625,-2.40625 1.5,-2.550781 1.09375,-2.742188 0.84375,-2.984375 c -0.242188,-0.25 -0.359375,-0.5625 -0.359375,-0.9375 0,-0.28125 0.078125,-0.53125 0.234375,-0.75 C 0.882812,-4.890625 1.109375,-5.0625 1.390625,-5.1875 1.679688,-5.3125 2.007812,-5.375 2.375,-5.375 Z m 0,0"
             id="id-dd5e3407-fa44-4a37-ba94-95c61e38a1cc" />
        </g>
        <g
           transform="translate(153.365, 134.765)"
           id="g61392">
          <path
             d="m 4.921875,-2.78125 c 0,0.15625 -0.011719,0.3125 -0.03125,0.46875 h -3.34375 c 0.039063,0.574219 0.1875,1 0.4375,1.28125 0.25,0.273438 0.570313,0.40625 0.96875,0.40625 0.257813,0 0.492187,-0.035156 0.703125,-0.109375 C 3.875,-0.804688 4.097656,-0.925781 4.328125,-1.09375 l 0.390625,0.5625 C 4.164062,-0.09375 3.554688,0.125 2.890625,0.125 2.160156,0.125 1.585938,-0.113281 1.171875,-0.59375 0.765625,-1.070312 0.5625,-1.734375 0.5625,-2.578125 c 0,-0.539063 0.085938,-1.019531 0.265625,-1.4375 0.175781,-0.425781 0.425781,-0.757813 0.75,-1 C 1.910156,-5.253906 2.300781,-5.375 2.75,-5.375 c 0.695312,0 1.234375,0.230469 1.609375,0.6875 0.375,0.460938 0.5625,1.09375 0.5625,1.90625 z M 4,-3.046875 c 0,-0.519531 -0.105469,-0.914063 -0.3125,-1.1875 -0.199219,-0.269531 -0.507812,-0.40625 -0.921875,-0.40625 -0.75,0 -1.15625,0.554687 -1.21875,1.65625 H 4 Z m 0,0"
             id="id-a18c118f-30ed-4854-880b-328708deb8b0" />
        </g>
        <g
           transform="translate(158.794, 134.765)"
           id="g61395">
          <path
             d="M 3.59375,-0.234375 C 3.25,0.00390625 2.859375,0.125 2.421875,0.125 1.972656,0.125 1.625,0 1.375,-0.25 1.125,-0.507812 1,-0.882812 1,-1.375 V -4.546875 H 0.09375 V -5.25 H 1 V -6.4375 L 1.921875,-6.546875 V -5.25 h 1.25 l -0.09375,0.703125 h -1.15625 v 3.125 c 0,0.28125 0.046875,0.484375 0.140625,0.609375 0.101562,0.117188 0.265625,0.171875 0.484375,0.171875 0.207031,0 0.441406,-0.066406 0.703125,-0.203125 z m 0,0"
             id="id-a442fbae-0f9c-423d-88d1-2b027a335705" />
        </g>
      </g>
      <g
         fill="#000000"
         fill-opacity="1"
         id="id-4dcbe6ed-c522-4457-b0b1-3bc0033191dd"
         transform="translate(-148.962, -127.281)">
        <g
           transform="translate(165.031, 134.765)"
           id="g61399">
          <path
             d="m 2.921875,-5.375 c 0.738281,0 1.3125,0.25 1.71875,0.75 0.40625,0.492188 0.609375,1.15625 0.609375,2 0,0.542969 -0.09375,1.023438 -0.28125,1.4375 -0.1875,0.417969 -0.460938,0.742188 -0.8125,0.96875 C 3.8125,0.0078125 3.394531,0.125 2.90625,0.125 2.164062,0.125 1.585938,-0.117188 1.171875,-0.609375 0.765625,-1.109375 0.5625,-1.78125 0.5625,-2.625 c 0,-0.539062 0.09375,-1.019531 0.28125,-1.4375 0.1875,-0.414062 0.457031,-0.738281 0.8125,-0.96875 C 2.007812,-5.257812 2.429688,-5.375 2.921875,-5.375 Z m 0,0.734375 c -0.90625,0 -1.359375,0.671875 -1.359375,2.015625 0,1.335938 0.445312,2 1.34375,2 0.90625,0 1.359375,-0.664062 1.359375,-2 0,-1.34375 -0.449219,-2.015625 -1.34375,-2.015625 z m 0,0"
             id="id-82ffed87-a64e-4cc2-b209-ad6cf7e9a14c" />
        </g>
        <g
           transform="translate(170.849, 134.765)"
           id="g61402">
          <path
             d="m 2.734375,-6.734375 c -0.28125,0 -0.484375,0.0625 -0.609375,0.1875 -0.117188,0.117187 -0.171875,0.304687 -0.171875,0.5625 V -5.25 h 1.28125 L 3.125,-4.546875 H 1.953125 V 0 H 1.03125 V -4.546875 H 0.09375 V -5.25 h 0.9375 v -0.71875 c 0,-0.457031 0.144531,-0.820312 0.4375,-1.09375 0.289062,-0.28125 0.695312,-0.421875 1.21875,-0.421875 0.238281,0 0.453125,0.027344 0.640625,0.078125 0.1875,0.042969 0.390625,0.109375 0.609375,0.203125 l -0.28125,0.65625 c -0.304688,-0.125 -0.609375,-0.1875 -0.921875,-0.1875 z m 0,0"
             id="id-af48bdc2-dfd1-472a-bc84-5297d7e80940" />
        </g>
      </g>
      <g
         fill="#000000"
         fill-opacity="1"
         id="id-d85ab85e-d4b3-45b6-b9a7-e0548cbf84ad"
         transform="translate(-148.962, -127.281)">
        <g
           transform="translate(176.826, 134.765)"
           id="g61406">
          <path
             d="m 2.796875,-6.875 c 0.851563,0 1.507813,0.183594 1.96875,0.546875 0.46875,0.355469 0.703125,0.882813 0.703125,1.578125 0,0.75 -0.246094,1.3125 -0.734375,1.6875 C 4.253906,-2.695312 3.613281,-2.515625 2.8125,-2.515625 H 1.9375 V 0 H 1 v -6.875 z m -0.03125,3.609375 c 0.550781,0 0.972656,-0.101563 1.265625,-0.3125 0.289062,-0.21875 0.4375,-0.601563 0.4375,-1.15625 0,-0.488281 -0.148438,-0.84375 -0.4375,-1.0625 C 3.738281,-6.015625 3.328125,-6.125 2.796875,-6.125 H 1.9375 v 2.859375 z m 0,0"
             id="id-ecce6353-ecec-4f35-a178-eb852ae6bba5" />
        </g>
        <g
           transform="translate(182.615, 134.765)"
           id="g61409">
          <path
             d="m 3.453125,-6.984375 c 0.570313,0 1.078125,0.140625 1.515625,0.421875 0.4375,0.273438 0.773438,0.671875 1.015625,1.203125 0.238281,0.53125 0.359375,1.179687 0.359375,1.9375 0,0.742187 -0.121094,1.375 -0.359375,1.90625 -0.242187,0.53125 -0.578125,0.9375 -1.015625,1.21875 C 4.53125,-0.015625 4.023438,0.125 3.453125,0.125 2.867188,0.125 2.359375,-0.0078125 1.921875,-0.28125 1.492188,-0.5625 1.15625,-0.96875 0.90625,-1.5 0.664062,-2.03125 0.546875,-2.671875 0.546875,-3.421875 c 0,-0.738281 0.117187,-1.375 0.359375,-1.90625 C 1.15625,-5.867188 1.5,-6.28125 1.9375,-6.5625 2.375,-6.84375 2.878906,-6.984375 3.453125,-6.984375 Z m 0,0.78125 c -0.605469,0 -1.074219,0.226563 -1.40625,0.671875 -0.324219,0.449219 -0.484375,1.152344 -0.484375,2.109375 0,0.949219 0.164062,1.648437 0.5,2.09375 0.332031,0.449219 0.796875,0.671875 1.390625,0.671875 1.257813,0 1.890625,-0.921875 1.890625,-2.765625 0,-1.851563 -0.632812,-2.78125 -1.890625,-2.78125 z m 0,0"
             id="id-45913d4d-7959-4c6d-86f6-e86719d8abdc" />
        </g>
        <g
           transform="translate(189.509, 134.765)"
           id="g61412">
          <path
             d="m 3.40625,-6.984375 c 0.40625,0 0.75,0.054687 1.03125,0.15625 0.28125,0.105469 0.566406,0.277344 0.859375,0.515625 L 4.78125,-5.703125 c -0.417969,-0.332031 -0.859375,-0.5 -1.328125,-0.5 -0.5625,0 -1.023437,0.21875 -1.375,0.65625 -0.34375,0.4375 -0.515625,1.140625 -0.515625,2.109375 0,0.9375 0.171875,1.636719 0.515625,2.09375 0.34375,0.449219 0.800781,0.671875 1.375,0.671875 0.289063,0 0.546875,-0.050781 0.765625,-0.15625 C 4.4375,-0.929688 4.671875,-1.070312 4.921875,-1.25 l 0.46875,0.609375 C 5.171875,-0.421875 4.894531,-0.238281 4.5625,-0.09375 4.226562,0.0507812 3.847656,0.125 3.421875,0.125 c -0.5625,0 -1.0625,-0.1328125 -1.5,-0.40625 C 1.492188,-0.5625 1.15625,-0.96875 0.90625,-1.5 0.664062,-2.039062 0.546875,-2.6875 0.546875,-3.4375 c 0,-0.75 0.125,-1.390625 0.375,-1.921875 0.257813,-0.539063 0.601563,-0.945313 1.03125,-1.21875 0.4375,-0.269531 0.921875,-0.40625 1.453125,-0.40625 z m 0,0"
             id="id-eb21dbe8-fd9c-4932-901d-d4aab2f96290" />
        </g>
      </g>
    </g>
  </g>
</svg>
